#!OML:ASF E:\inclinewalkrobotboard\Project 1\Capture day 1\Session 1\subject1.ASF
:FULLY-SPECIFIED
:DEGREES
111
root 9.22697 16.6554 18.1329 -167.633 2.84423 180.306
lowerback -9.56481 0.939615 -6.80069
upperback 1.05718 1.9401 2.05798
thorax 6.20628 0.687254 6.31074
lowerneck -5.81939 -0.107296 -4.32127
upperneck 27.1959 -3.45912 5.34645
head 9.6648 -2.4 2.11465
rclavicle 1.32689e-014 2.04748e-014
rhumerus -44.3357 -25.6006 -65.8015
rradius 31.7304
rwrist 14.6229
rhand -22.6611 -39.8113
rfingers 7.12502
rthumb 3.77036 -69.7577
lclavicle 1.32689e-014 2.04748e-014
lhumerus -30.1162 6.10497 86.5237
lradius 20.739
lwrist -24.0938
lhand -30.8481 -21.0073
lfingers 7.12502
lthumb -4.1365 8.93226
rfemur -9.72497 2.62765 20.5615
rtibia 11.3594
rfoot -17.2034 -6.70119
rtoes -21.4494
lfemur -12.3652 -6.47726 -20.2978
ltibia 9.30158
lfoot -10.2823 -2.88107
ltoes -49.5216
112
root 9.22564 16.6565 18.1324 -167.618 3.18635 180.334
lowerback -9.43215 0.867848 -6.80502
upperback 1.08213 1.83162 2.13679
thorax 6.17213 0.633117 6.37857
lowerneck -5.89944 -0.0823067 -4.3076
upperneck 27.4086 -3.48923 5.34332
head 9.75825 -2.42876 2.10608
rclavicle -1.58531e-014 3.97569e-016
rhumerus -44.5586 -25.538 -65.3858
rradius 31.4896
rwrist 13.7827
rhand -23.7127 -38.826
rfingers 7.12502
rthumb 2.7548 -68.788
lclavicle -1.58531e-014 3.97569e-016
lhumerus -30.0989 6.07067 86.3897
lradius 20.8326
lwrist -24.1742
lhand -31.2263 -22.1578
lfingers 7.12502
lthumb -4.50162 7.77438
rfemur -9.78357 2.88227 20.5402
rtibia 11.4086
rfoot -17.3017 -6.44462
rtoes -19.2816
lfemur -12.3686 -6.32136 -20.2833
ltibia 9.35214
lfoot -10.4346 -2.74357
ltoes -49.5832
113
root 9.2235 16.656 18.1304 -167.613 3.51823 180.247
lowerback -9.34473 0.845068 -6.87387
upperback 1.12634 1.80261 2.14317
thorax 6.17233 0.614456 6.41868
lowerneck -6.06667 -0.0758411 -4.05152
upperneck 27.7058 -3.55065 5.19087
head 9.89622 -2.46171 1.99885
rclavicle -1.14798e-014 5.1684e-015
rhumerus -44.8923 -25.9428 -64.6685
rradius 31.2835
rwrist 14.1522
rhand -23.0135 -39.3699
rfingers 7.12502
rthumb 3.43003 -69.322
lclavicle -1.14798e-014 5.1684e-015
lhumerus -29.9666 5.90481 86.2407
lradius 20.8133
lwrist -24.4052
lhand -31.2497 -21.0214
lfingers 7.12502
lthumb -4.52423 8.91033
rfemur -9.84315 3.04116 20.3834
rtibia 11.4533
rfoot -17.3199 -6.19143
rtoes -17.8891
lfemur -12.4113 -6.27892 -20.4237
ltibia 9.48198
lfoot -10.6557 -2.57
ltoes -49.68
114
root 9.22298 16.6558 18.1258 -167.546 3.8237 180.262
lowerback -9.31127 0.811733 -6.82448
upperback 1.12635 1.74834 2.18193
thorax 6.1621 0.589452 6.42349
lowerneck -5.93154 -0.0615331 -4.03341
upperneck 27.8085 -3.61495 5.23438
head 9.91137 -2.50594 2.00338
rclavicle -1.65488e-014 1.19271e-014
rhumerus -45.2872 -26.225 -63.9113
rradius 31.0184
rwrist 14.7286
rhand -21.8417 -39.4691
rfingers 7.12502
rthumb 4.56167 -69.4
lclavicle -1.65488e-014 1.19271e-014
lhumerus -29.874 5.81486 86.0528
lradius 20.7508
lwrist -24.655
lhand -31.1054 -20.8382
lfingers 7.12502
lthumb -4.38488 9.0964
rfemur -9.97789 3.00751 20.3865
rtibia 11.4765
rfoot -17.0986 -6.11775
rtoes -19.7251
lfemur -12.4987 -6.27847 -20.4307
ltibia 9.62078
lfoot -10.8953 -2.34471
ltoes -49.5849
115
root 9.22485 16.6574 18.1196 -167.477 4.13275 180.288
lowerback -9.28315 0.754997 -6.78829
upperback 1.12825 1.66395 2.23787
thorax 6.16102 0.548441 6.45062
lowerneck -5.75148 -3.22157 -4.05545
upperneck 28.1216 -2.52932 4.50968
head 9.96639 -0.167724 2.19948
rclavicle -1.35174e-014 7.55382e-015
rhumerus -45.6331 -26.363 -63.249
rradius 30.7117
rwrist 15.2289
rhand -21.2173 -39.1375
rfingers 7.12502
rthumb 5.16452 -69.0545
lclavicle -1.35174e-014 7.55382e-015
lhumerus -29.7265 6.11938 85.7712
lradius 20.514
lwrist -25.0596
lhand -31.1022 -21.2432
lfingers 7.12502
lthumb -4.38179 8.69148
rfemur -10.0993 3.03563 20.4105
rtibia 11.4452
rfoot -16.8138 -6.16926
rtoes -21.9805
lfemur -12.3022 -6.09262 -20.4016
ltibia 9.22197
lfoot -10.8148 -2.17429
ltoes -49.4944
116
root 9.22696 16.6596 18.1138 -167.472 4.42211 180.187
lowerback -9.18269 0.715188 -6.85407
upperback 1.14331 1.61151 2.22461
thorax 6.12726 0.52114 6.46363
lowerneck -6.19296 -3.20132 -3.76327
upperneck 28.7012 -2.42265 4.26475
head 10.2531 -0.0875599 2.08782
rclavicle -1.29707e-014 5.56597e-015
rhumerus -46.0157 -26.7687 -62.5413
rradius 30.2896
rwrist 15.6365
rhand -21.3767 -38.9624
rfingers 7.12502
rthumb 5.01063 -68.8832
lclavicle -1.29707e-014 5.56597e-015
lhumerus -29.5084 6.47055 85.4459
lradius 20.1342
lwrist -25.4433
lhand -31.2459 -21.5431
lfingers 7.12502
lthumb -4.52061 8.38864
rfemur -10.1348 3.13381 20.2716
rtibia 11.4367
rfoot -16.7233 -6.06995
rtoes -22.1213
lfemur -12.0708 -5.88015 -20.5362
ltibia 8.86868
lfoot -10.7374 -2.08663
ltoes -49.4874
